<svg xmlns="http://www.w3.org/2000/svg" width="24" height="20" viewBox="0 0 24 20">
    <path fill="#10414C" fill-rule="nonzero" d="M20.924.205H3.076C1.765.205.684 1.273.684 2.568v11.887c0 1.318 1.081 2.363 2.392 2.363H9.01l-.368.977c-.023.023-.046.069-.069.091l-1.886.591a.175.175 0 0 0-.092.046.653.653 0 0 0-.253.75c.092.295.391.5.736.5h9.844c.345 0 .644-.205.736-.5a.653.653 0 0 0-.253-.75c-.023-.023-.046-.023-.092-.046l-1.886-.59c-.023-.046-.046-.069-.069-.092l-.345-.977h5.934c1.311 0 2.392-1.068 2.392-2.363V2.568A2.426 2.426 0 0 0 20.924.205zM17.083 19.09c0 .023-.046.068-.138.068H7.078c-.092 0-.138-.045-.138-.068v-.046l2.001-.636c.046-.023.092-.045.138-.09h5.842c.046.045.092.067.138.09l2.001.636.023.046zm-7.751-1.364l.345-.909h4.669l.345.91H9.332zm-6.256-1.522c-.966 0-1.771-.773-1.771-1.75v-1.046h21.39v1.068c0 .955-.782 1.75-1.771 1.75H3.076v-.022zM1.305 2.568c0-.954.782-1.75 1.771-1.75h17.848c.966 0 1.771.773 1.771 1.75v10.227H1.305V2.568z"/>
</svg>
