<svg xmlns="http://www.w3.org/2000/svg" width="11" height="20" viewBox="0 0 11 20">
    <path fill="#10414C" fill-rule="nonzero" d="M1.935.08A1.866 1.866 0 0 0 .081 1.936v16.13c0 1.016.838 1.854 1.854 1.854h6.452a1.866 1.866 0 0 0 1.855-1.854V1.935A1.866 1.866 0 0 0 8.387.081H1.935zm0 .485h6.452c.678 0 1.226.483 1.355 1.129H.581A1.383 1.383 0 0 1 1.935.564zm2.42.322a.248.248 0 0 0-.242.242c0 .13.113.242.242.242h1.613a.248.248 0 0 0 .242-.242.248.248 0 0 0-.242-.242H4.355zm-3.79 1.29h9.193v14.84H.565V2.176zm0 15.323h9.193v.565a1.37 1.37 0 0 1-1.37 1.37H1.934a1.37 1.37 0 0 1-1.37-1.37V17.5zm4.596.161a.799.799 0 0 0-.806.807c0 .451.355.806.806.806a.799.799 0 0 0 .807-.806.799.799 0 0 0-.807-.807zm0 .484a.324.324 0 0 1 0 .645.324.324 0 0 1-.322-.322c0-.178.145-.323.322-.323z"/>
</svg>
