<svg xmlns="http://www.w3.org/2000/svg" width="20" height="20" viewBox="0 0 20 20">
    <g fill="#10414C" fill-rule="nonzero">
        <path d="M17.88.04H2.156a2.111 2.111 0 0 0-2.11 2.109v15.729a2.111 2.111 0 0 0 2.11 2.109H17.88a2.109 2.109 0 0 0 2.107-2.11V2.15A2.111 2.111 0 0 0 17.88.04zM2.156.484H17.88a1.667 1.667 0 0 1 1.662 1.665v1.678H.492V2.149A1.667 1.667 0 0 1 2.155.484zM17.88 19.542H2.156A1.667 1.667 0 0 1 .49 17.878V4.27h19.051v13.607a1.667 1.667 0 0 1-1.662 1.664z"/>
        <path d="M17.311 3.136a.978.978 0 1 0-.009-1.956.978.978 0 0 0 .01 1.956zm0-1.51a.533.533 0 1 1-.009 1.067.533.533 0 0 1 .01-1.066zM14.793 3.136a.978.978 0 1 0-.009-1.956.978.978 0 0 0 .01 1.956zm0-1.51a.533.533 0 1 1-.009 1.067.533.533 0 0 1 .01-1.066zM12.304 3.136a.978.978 0 1 0 .014-1.956.978.978 0 0 0-.014 1.956zm0-1.51a.533.533 0 1 1 .014 1.067.533.533 0 0 1-.014-1.066zM9.267 6.969H5.489a.549.549 0 0 0-.547.549v3.52c0 .302.245.547.547.549h3.778a.551.551 0 0 0 .549-.55v-3.52a.551.551 0 0 0-.55-.548zm.104 4.069a.104.104 0 0 1-.104.104H5.489a.104.104 0 0 1-.102-.104v-3.52c0-.057.045-.103.102-.105h3.778c.057 0 .104.047.104.105v3.52zM14.733 6.98h-3.777a.549.549 0 0 0-.547.549v3.52c0 .302.244.548.547.549h3.777a.551.551 0 0 0 .55-.55v-3.52a.551.551 0 0 0-.55-.548zm.105 4.069a.104.104 0 0 1-.105.104h-3.777a.104.104 0 0 1-.103-.104v-3.52c0-.057.046-.103.103-.105h3.777c.058 0 .105.047.105.105v3.52zM9.258 12.02H5.48a.547.547 0 0 0-.547.547v3.522c0 .302.245.547.547.547h3.778a.547.547 0 0 0 .546-.547v-3.522a.547.547 0 0 0-.546-.547zm.102 4.069a.102.102 0 0 1-.102.102H5.48a.102.102 0 0 1-.102-.102v-3.522a.104.104 0 0 1 .102-.103h3.778a.104.104 0 0 1 .102.103v3.522zM14.722 12.031h-3.778a.547.547 0 0 0-.546.547V16.1c0 .302.245.547.546.547h3.778a.549.549 0 0 0 .55-.547v-3.522a.549.549 0 0 0-.55-.547zm.105 4.069a.102.102 0 0 1-.105.102h-3.778a.102.102 0 0 1-.102-.102v-3.522a.104.104 0 0 1 .102-.102h3.778c.057 0 .103.045.105.102V16.1z"/>
    </g>
</svg>
