<?xml version="1.0" encoding="UTF-8"?>
<svg width="92px" height="32px" viewBox="0 0 92 32" version="1.1" xmlns="http://www.w3.org/2000/svg" xmlns:xlink="http://www.w3.org/1999/xlink">
    <!-- Generator: Sketch 51 (57462) - http://www.bohemiancoding.com/sketch -->
    <title>Download_on_the_App_Store_Badge_RU_RGB_blk_100317</title>
    <desc>Created with Sketch.</desc>
    <defs></defs>
    <g id="О-проекте" stroke="none" stroke-width="1" fill="none" fill-rule="evenodd">
        <g id="Партнеры-раскрытый-фильтр-Copy" transform="translate(-1243.000000, -2867.000000)" fill-rule="nonzero">
            <g id="футер-copy" transform="translate(497.000000, 2702.000000)">
                <g id="Download_on_the_App_Store_Badge_RU_RGB_blk_100317" transform="translate(746.000000, 165.000000)">
                    <g id="Group">
                        <g id="Shape">
                            <path d="M83.9322564,-2.71050543e-20 L7.26625394,-2.71050543e-20 C6.98679671,-2.71050543e-20 6.71069265,-2.71050543e-20 6.43197464,0.0016 C6.19866176,0.0032 5.96720837,0.007848 5.73165496,0.01176 C5.21992409,0.0180814429 4.70939663,0.0653410079 4.20450918,0.153128 C3.7003309,0.242826102 3.21194637,0.411932592 2.75587359,0.654728 C2.30035861,0.899577369 1.88414155,1.21773402 1.52232177,1.597656 C1.15860249,1.9765096 0.855414394,2.4144131 0.624415834,2.894528 C0.39277973,3.3736873 0.232162508,3.88715064 0.148111573,4.417184 C0.063261544,4.94654793 0.0176029714,5.48201643 0.0115456153,6.018784 C0.00447344962,6.264064 0.00372660454,6.51016 0,6.755472 L0,25.24688 C0.00372660454,25.49528 0.00447344962,25.73592 0.0115456153,25.9844 C0.0176048289,26.5211409 0.0632634023,27.0565827 0.148111573,27.58592 C0.231930418,28.1162632 0.392557137,28.6300213 0.624415834,29.10936 C0.855309507,29.5879223 1.15854024,30.024053 1.52232177,30.4008 C1.88276964,30.7824112 2.29925574,31.1007843 2.75587359,31.34376 C3.2119429,31.5872052 3.70027478,31.7573183 4.20450918,31.8484 C4.70948246,31.9354838 5.21995741,31.9827626 5.73165496,31.98984 C5.96720837,31.99528 6.19866176,31.9984 6.43197464,31.9984 C6.71068503,32 6.98681195,32 7.26625394,32 L83.9322564,32 C84.2061504,32 84.4844645,32 84.7583585,31.9984 C84.9905664,31.9984 85.2287185,31.99528 85.4609264,31.98984 C85.9716565,31.983139 86.4811704,31.9358572 86.9851,31.8484 C87.4909611,31.7566771 87.9810437,31.5866091 88.4393141,31.34376 C88.8955201,31.1006437 89.3116217,30.7822793 89.6717609,30.4008 C90.0346038,30.0225774 90.338482,29.5867658 90.5722427,29.10936 C90.8023615,28.6296726 90.9614592,28.1159556 91.0440506,27.58592 C91.1290346,27.0565101 91.1763133,26.5211874 91.1854939,25.9844 C91.1884661,25.73592 91.1884661,25.49528 91.1884661,25.24688 C91.1944103,24.95624 91.1944103,24.6672 91.1944103,24.37184 L91.1944103,7.628904 C91.1944103,7.335936 91.1944103,7.045312 91.1884661,6.755472 C91.1884661,6.51016 91.1884661,6.264064 91.1854939,6.018752 C91.1763152,5.48193796 91.1290365,4.94658854 91.0440506,4.417152 C90.961229,3.88742528 90.8021406,3.37400262 90.5722427,2.894496 C90.101825,1.93215686 89.3558784,1.14882032 88.4393141,0.654656 C87.9810423,0.412453904 87.4909073,0.243392328 86.9851,0.153056 C86.4812576,0.0648822265 85.9716906,0.0176062119 85.4609264,0.011648 C85.2287185,0.007744 84.9905664,0.003056 84.7583585,0.001496 C84.4844645,-0.000104 84.2061504,-0.000104 83.9322564,-0.000104 L83.9322564,-2.71050543e-20 Z" fill="#A6A6A6"></path>
                            <path d="M6.43569362,31.3 C6.20350101,31.3 5.97691736,31.29688 5.74654613,31.29144 C5.26931348,31.2849126 4.79319623,31.2413 4.32209918,31.16096 C3.88282495,31.0815425 3.45728629,30.9338116 3.05951946,30.72264 C2.66539994,30.5132181 2.30593126,30.2386183 1.99488418,29.90936 C1.67933476,29.5839802 1.41662546,29.2065952 1.21716696,28.79216 C1.0155106,28.3750313 0.875952405,27.9279197 0.803353819,27.4664 C0.724953649,26.9704919 0.682535908,26.4690506 0.676466364,25.9664 C0.671634734,25.79768 0.665309413,25.23592 0.665309413,25.23592 L0.665309413,6.755472 C0.665309413,6.755472 0.67204626,6.202344 0.676504468,6.03984 C0.68231601,5.53798564 0.724487091,5.03732248 0.802652699,4.542184 C0.875385292,4.07940006 1.01505153,3.63099909 1.2168164,3.212504 C1.41554184,2.79835508 1.67679263,2.42068823 1.99044121,2.094144 C2.30373726,1.76449714 2.66435582,1.4884833 3.05914604,1.276168 C3.45599869,1.06567488 3.88073313,0.918986036 4.31911942,0.841016 C4.79176363,0.759868911 5.26953377,0.715996867 5.74842087,0.709768 L6.43606705,0.7 L84.7546243,0.7 L85.4504858,0.71016 C85.9250169,0.716079358 86.3984469,0.759560005 86.8667479,0.840232 C87.3095721,0.919180055 87.738733,1.06689243 88.1401188,1.278512 C88.9310266,1.70638884 89.5745731,2.38333036 89.9805585,3.214456 C90.1791029,3.63006205 90.3166148,4.0748054 90.3884273,4.533592 C90.4675237,5.0327931 90.5117916,5.53739067 90.520878,6.04336 C90.5230881,6.26992 90.5230881,6.51328 90.5230881,6.755472 C90.5291085,7.055472 90.5291085,7.341016 90.5291085,7.628904 L90.5291085,24.37184 C90.5291085,24.66248 90.5291085,24.94608 90.5230881,25.232 C90.5230881,25.49216 90.5230881,25.73048 90.5201159,25.97576 C90.5112262,26.4727005 90.4676963,26.9682914 90.3898753,27.45856 C90.3187648,27.9234089 90.1799664,28.3740105 89.9783484,28.79456 C89.7774799,29.2044969 89.5162793,29.578613 89.204373,29.90312 C88.8930461,30.2341477 88.532943,30.5103542 88.1379087,30.72112 C87.7376349,30.9339149 87.3091057,31.0821922 86.8667479,31.16096 C86.3956865,31.2417288 85.9195236,31.2853441 85.4422552,31.29144 C85.21904,31.29688 84.985308,31.3 84.7583585,31.3 L83.9322564,31.3016 L6.43569362,31.3 Z" fill="#000000"></path>
                        </g>
                        <g id="_Group_" transform="translate(6.858781, 6.400000)" fill="#FFFFFF">
                            <g id="_Group_2">
                                <g id="_Group_3">
                                    <path d="M12.0172556,9.840544 C12.0339125,8.4833673 12.7117018,7.22974889 13.8131589,6.518896 C13.1151427,5.47241021 11.9879244,4.83270268 10.7715485,4.792752 C9.4918218,4.651744 8.25118257,5.596616 7.59905726,5.596616 C6.93431179,5.596616 5.9302624,4.806752 4.84906697,4.830104 C3.42649571,4.87835073 2.13242346,5.70682038 1.4403136,7.0124 C-0.0335623035,9.691136 1.06581652,13.627976 2.47766618,15.793264 C3.18404445,16.853544 4.00959786,18.037904 5.08981782,17.995904 C6.14687796,17.94988 6.54166942,17.28832 7.81763138,17.28832 C9.08175051,17.28832 9.45214756,17.995904 10.5542851,17.9692 C11.6885599,17.949872 12.4032068,16.904208 13.084802,15.833888 C13.5923337,15.0783998 13.9828784,14.2434208 14.2419699,13.35988 C12.8947959,12.761745 12.018828,11.3760275 12.0172556,9.840544 Z" id="_Path_"></path>
                                    <path d="M9.93551637,3.368712 C10.5539701,2.58934552 10.8586588,1.58760196 10.7848774,0.576216 C9.84001761,0.68039239 8.96723188,1.15443974 8.34042293,1.903904 C7.72147791,2.64335122 7.40792179,3.61074614 7.46881662,4.593016 C8.42634581,4.60336541 9.33549958,4.15212257 9.93551637,3.368712 Z" id="_Path_2"></path>
                                </g>
                            </g>
                            <g id="Group" transform="translate(19.052170, 7.200000)">
                                <path d="M6.32705053,8.11172 L2.71978878,8.11172 L1.85350945,10.79688 L0.325616835,10.79688 L3.74235687,0.86248 L5.32978372,0.86248 L8.74652376,10.79688 L7.19257539,10.79688 L6.32705053,8.11172 Z M3.0933866,6.872656 L5.95273634,6.872656 L4.54317294,2.51484 L4.50372733,2.51484 L3.0933866,6.872656 Z" id="Shape"></path>
                                <path d="M16.1255208,7.175784 C16.1255208,9.426568 14.9779248,10.872656 13.246113,10.872656 C12.3509546,10.9218117 11.5077643,10.4296246 11.0752096,9.605456 L11.0424399,9.605456 L11.0424399,13.19296 L9.62617771,13.19296 L9.62617771,3.553904 L10.9970652,3.553904 L10.9970652,4.758592 L11.0231133,4.758592 C11.4748847,3.93959033 12.3189842,3.44761507 13.2200648,3.47812 C14.9711955,3.478128 16.1255208,4.931248 16.1255208,7.175784 Z M14.6698131,7.175784 C14.6698131,5.709384 13.9479111,4.745312 12.8464594,4.745312 C11.7643571,4.745312 11.0365032,5.729688 11.0365032,7.175784 C11.0365032,8.63516 11.7643571,9.612504 12.8464594,9.612504 C13.9479187,9.612504 14.6698131,8.655472 14.6698131,7.175784 Z" id="Shape"></path>
                                <path d="M23.719594,7.175784 C23.719594,9.426568 22.571998,10.872656 20.8401862,10.872656 C19.9450278,10.9218117 19.1018375,10.4296246 18.6692828,9.605456 L18.6365131,9.605456 L18.6365131,13.19296 L17.2202509,13.19296 L17.2202509,3.553904 L18.5911079,3.553904 L18.5911079,4.758592 L18.6171561,4.758592 C19.0689307,3.93959083 19.9130335,3.44761846 20.8141152,3.478128 C22.5652992,3.478128 23.719594,4.931248 23.719594,7.175784 Z M22.2638863,7.175784 C22.2638863,5.709384 21.5419843,4.745312 20.4405326,4.745312 C19.3584303,4.745312 18.6305764,5.729688 18.6305764,7.175784 C18.6305764,8.63516 19.3584303,9.612504 20.4405326,9.612504 C21.5419919,9.612504 22.2638939,8.655472 22.2638939,7.175784 L22.2638863,7.175784 Z" id="Shape"></path>
                                <path d="M28.7386521,8.028904 C28.8435914,9.014064 29.7552759,9.660904 31.0010973,9.660904 C32.1948377,9.660904 33.0536715,9.014032 33.0536715,8.125744 C33.0536715,7.354648 32.5356887,6.892944 31.309209,6.576528 L30.0827294,6.266368 C28.3449657,5.825744 27.5382206,4.972616 27.5382206,3.58824 C27.5382206,1.874176 28.9611814,0.696832 30.9817479,0.696832 C32.9814638,0.696832 34.3523436,1.874176 34.398488,3.58824 L32.9688131,3.58824 C32.8832308,2.596832 32.1025338,1.9984 30.9616365,1.9984 C29.8207392,1.9984 29.0400498,2.603872 29.0400498,3.48512 C29.0400498,4.187464 29.5386832,4.600744 30.7584641,4.91712 L31.8011208,5.185872 C33.7428037,5.667904 34.5495488,6.486672 34.5495488,7.939776 C34.5495488,9.798368 33.1392386,10.962432 30.8961427,10.962432 C28.7974242,10.962432 27.3804229,9.825712 27.288881,8.028832 L28.7386521,8.028904 Z" id="Shape"></path>
                                <path d="M37.6060962,1.83984 L37.6060962,3.553904 L38.9181658,3.553904 L38.9181658,4.731248 L37.6060962,4.731248 L37.6060962,8.724216 C37.6060962,9.344528 37.8688103,9.633592 38.4455805,9.633592 C38.6013445,9.63074076 38.7568565,9.61925811 38.911467,9.599192 L38.911467,10.769504 C38.6521505,10.8203676 38.388577,10.8434036 38.1248182,10.838256 C36.727913,10.838256 36.1831353,10.287472 36.1831353,8.882784 L36.1831353,4.731248 L35.1799242,4.731248 L35.1799242,3.553904 L36.18312,3.553904 L36.18312,1.83984 L37.6060962,1.83984 Z" id="Shape"></path>
                                <path d="M39.6780502,7.175784 C39.6780502,4.89688 40.9566261,3.464848 42.9504129,3.464848 C44.9508908,3.464848 46.2235148,4.896848 46.2235148,7.175784 C46.2235148,9.460944 44.9575895,10.88672 42.9504129,10.88672 C40.943945,10.88672 39.6780502,9.460936 39.6780502,7.175784 Z M44.7804577,7.175784 C44.7804577,5.612504 44.0980013,4.689848 42.9504053,4.689848 C41.8028092,4.689848 41.1210997,5.619536 41.1210997,7.175784 C41.1210997,8.745312 41.8028092,9.660944 42.9504053,9.660944 C44.0980013,9.660944 44.7804272,8.745312 44.7804272,7.175784 L44.7804577,7.175784 Z" id="Shape"></path>
                                <path d="M47.3911766,3.553904 L48.741945,3.553904 L48.741945,4.786704 L48.7747147,4.786704 C48.9630843,3.99309472 49.6557881,3.44690525 50.4343341,3.478112 C50.5975456,3.47751378 50.7603069,3.4961206 50.91957,3.533584 L50.91957,4.924208 C50.7135253,4.85811466 50.4985853,4.82776903 50.2832275,4.834368 C49.86686,4.81663635 49.4639086,4.99082778 49.1801765,5.31120478 C48.8964444,5.63158177 48.7602782,6.06613659 48.8074311,6.500768 L48.8074311,10.796864 L47.391169,10.796864 L47.3911766,3.553904 Z" id="Shape"></path>
                                <path d="M57.4493813,8.669528 C57.2588596,9.984368 56.0390711,10.886712 54.4784316,10.886712 C52.4712549,10.886712 51.2254259,9.474992 51.2254259,7.210152 C51.2254259,4.93828 52.4779537,3.46484 54.4188974,3.46484 C56.3278334,3.46484 57.5282725,4.8414 57.5282725,7.037496 L57.5282725,7.546872 L52.6550855,7.546872 L52.6550855,7.636712 C52.609587,8.1759373 52.7869582,8.70969555 53.1420818,9.10221594 C53.4972054,9.49473633 53.9958534,9.70818663 54.5111861,9.688272 C55.1984682,9.75587169 55.8464407,9.34158213 56.1045724,8.66952 L57.4493813,8.669528 Z M52.6617708,6.507816 L56.1112636,6.507808 C56.1369653,6.02327799 55.9689488,5.54945847 55.6476938,5.20050524 C55.3264388,4.85155201 54.8810731,4.65910433 54.4188974,4.669528 C53.9530655,4.66660978 53.5054225,4.8591477 53.1754655,5.2043466 C52.8455084,5.54954549 52.6605773,6.01880234 52.6617708,6.507816 Z" id="Shape"></path>
                            </g>
                        </g>
                    </g>
                    <g id="_Group_4" transform="translate(30.000000, 5.000000)" fill="#FFFFFF">
                        <g id="Group">
                            <path d="M1.50429808,2.89192889 L2.19474519,2.89192889 C2.43503845,2.92266503 2.67689853,2.84880435 2.86181297,2.68821573 C3.04672741,2.52762711 3.15785206,2.29493884 3.16830288,2.04644444 C3.16830288,1.55729778 2.80998173,1.24132444 2.20235192,1.24132444 C1.9563402,1.20601575 1.706879,1.27434512 1.51064847,1.4307874 C1.31441795,1.58722969 1.18808086,1.81850072 1.16034231,2.07205333 L0.402265385,2.07205333 C0.428640842,1.61152946 0.640098384,1.18296041 0.986080071,0.888813898 C1.33206176,0.594667383 1.78146555,0.461385714 2.22684231,0.520835556 C3.24349615,0.520835556 3.95934231,1.10546667 3.95934231,1.94704889 C3.96425612,2.52803723 3.57332614,3.03358373 3.02126538,3.16016 L3.02126538,3.22265778 C3.6824379,3.25278036 4.19568256,3.82593253 4.16976058,4.50520889 C4.12228149,4.97907142 3.89102916,5.4133323 3.5281815,5.71000841 C3.16533384,6.00668452 2.70146322,6.14077889 2.24123365,6.08203556 C1.77996048,6.14663194 1.31292833,6.01599303 0.947235789,5.72007659 C0.581543249,5.42416015 0.348564275,4.98835381 0.301725,4.51259556 L1.07161442,4.51259556 C1.11809423,5.01997333 1.57191923,5.34726222 2.24123365,5.34726222 C2.91054808,5.34726222 3.34747212,4.97964444 3.34747212,4.46141333 C3.34747212,3.93580444 2.93590385,3.61201778 2.21672596,3.61201778 L1.50429808,3.61201778 L1.50429808,2.89192889 Z" id="Shape"></path>
                            <path d="M5.04443077,4.82161778 C5.04443077,4.10112889 5.56754712,3.68576889 6.49377692,3.62673778 L7.5493125,3.56424 L7.5493125,3.21875556 C7.5493125,2.79600889 7.27803173,2.55729778 6.75154038,2.55729778 C6.32223173,2.55729778 6.02559519,2.71919111 5.93939423,3.00217778 L5.19486058,3.00217778 C5.27345481,2.31467556 5.90390481,1.87370667 6.78787788,1.87370667 C7.76481923,1.87370667 8.31582692,2.37326222 8.31582692,3.21875556 L8.31582692,5.95356444 L7.57466827,5.95356444 L7.57466827,5.39106667 L7.51382308,5.39106667 C7.26238437,5.80184563 6.8152445,6.04192287 6.34335577,6.01951111 C6.01255049,6.05485495 5.68262696,5.94480948 5.4351483,5.71657995 C5.18766964,5.48835043 5.04573411,5.1632385 5.04443077,4.82161778 Z M7.5493125,4.4796 L7.5493125,4.14496889 L6.59769231,4.20746667 C6.06105,4.24435556 5.81766058,4.43185778 5.81766058,4.78472 C5.81766058,5.14496 6.12189519,5.35459556 6.54025673,5.35459556 C6.78792338,5.3803568 7.0351645,5.30177054 7.22537861,5.13682772 C7.41559272,4.97188491 7.53249131,4.73470999 7.5493125,4.4796 Z" id="Shape"></path>
                            <polygon id="Shape" points="10.3567413 2.61588444 10.3567413 5.95355556 9.5877 5.95355556 9.5877 1.95095111 12.1534615 1.95095111 12.1534615 2.61584"></polygon>
                            <path d="M16.8141721,3.95052444 C16.8141721,5.22222222 16.1879538,6.01953778 15.2042538,6.01953778 C14.7112309,6.05412547 14.2434311,5.79186103 14.0050558,5.34722667 L13.9442019,5.34722667 L13.9442019,7.28429333 L13.1751606,7.28429333 L13.1751606,1.95096 L13.9154712,1.95096 L13.9154712,2.61244444 L13.9729413,2.61244444 C14.2152671,2.15289361 14.687991,1.8717149 15.1966471,1.88457778 C16.1879452,1.88455111 16.8141721,2.67838222 16.8141721,3.95052444 Z M16.0231587,3.95052444 C16.0231587,3.10504 15.6335625,2.59418667 14.9819971,2.59418667 C14.3346894,2.59418667 13.9298452,3.11588444 13.9298452,3.954 C13.9298452,4.78820444 14.3346462,5.31033778 14.9786135,5.31033778 C15.6335625,5.31032889 16.0231587,4.79947556 16.0231587,3.95052444 Z" id="Shape"></path>
                            <path d="M17.8384327,7.38715556 L17.8384327,6.70703111 C17.9216547,6.71789355 18.0055091,6.72282386 18.0893942,6.72178667 C18.4286816,6.74760079 18.7324579,6.50684442 18.7942067,6.16319111 L18.8516769,5.96831111 L17.4412038,1.95095111 L18.2786971,1.95095111 L19.2556731,5.13020444 L19.3165183,5.13020444 L20.290076,1.95095111 L21.1055971,1.95095111 L19.6528846,6.11892444 C19.3199106,7.09288 18.9514471,7.40538667 18.15705,7.40538667 C18.0928125,7.40537778 17.9102683,7.398 17.8384327,7.38715556 Z" id="Shape"></path>
                            <path d="M21.7047721,4.81770667 L22.4704385,4.81770667 C22.545649,5.17059556 22.86765,5.35459556 23.318074,5.35459556 C23.8302087,5.35459556 24.1445856,5.12282667 24.1445856,4.76259556 C24.1445856,4.37674667 23.8623231,4.19272 23.318074,4.19272 L22.7349519,4.19272 L22.7349519,3.57900444 L23.3079317,3.57900444 C23.7727385,3.57900444 24.0093692,3.39541333 24.0093692,3.06078222 C24.0093692,2.76694222 23.7803452,2.54256 23.3079317,2.54256 C22.877775,2.54256 22.5633981,2.73006222 22.5135087,3.04603556 L21.7723846,3.04603556 C21.8876527,2.29071787 22.5705769,1.76934038 23.3079317,1.87372444 C24.2341615,1.87372444 24.7640452,2.30384889 24.7640452,2.98006222 C24.7729574,3.36812632 24.5164727,3.70974461 24.1488087,3.79951111 L24.1488087,3.86200889 C24.5884601,3.92025884 24.9160634,4.30730808 24.9110913,4.76261333 C24.9110913,5.52350222 24.2806413,6.02693333 23.318074,6.02693333 C22.4670548,6.02690667 21.7757683,5.62630222 21.7047721,4.81770667 Z" id="Shape"></path>
                            <polygon id="Shape" points="26.0186019 5.95355556 26.0186019 1.95095111 26.7808846 1.95095111 26.7808846 4.704 26.8417298 4.704 28.637576 1.95096 29.3998587 1.95096 29.3998587 5.95356444 28.637576 5.95356444 28.637576 3.18577778 28.5801058 3.18577778 26.7808846 5.95357333"></polygon>
                            <polygon id="Shape" points="33.5991635 2.61588444 32.3720481 2.61588444 32.3720481 5.95355556 31.6021587 5.95355556 31.6021587 2.61588444 30.3750433 2.61588444 30.3750433 1.95099556 33.5991635 1.95099556"></polygon>
                            <path d="M37.7418548,4.87282667 C37.5255819,5.62775473 36.8141823,6.11538783 36.0524942,6.03080889 C35.5328844,6.04489836 35.0335103,5.82367096 34.6868688,5.42582395 C34.3402273,5.02797693 34.1813624,4.49373113 34.252425,3.96483556 C34.1832525,3.43447153 34.3415235,2.89937221 34.6862344,2.49816618 C35.0309453,2.09696016 35.5281767,1.869126 36.0491106,1.87368889 C37.1333769,1.87368889 37.7883346,2.63457778 37.7883346,3.89146667 L37.7883346,4.16711111 L35.0366885,4.16711111 L35.0366885,4.21137778 C35.0120467,4.50846186 35.110704,4.80241839 35.3083434,5.02079328 C35.5059829,5.23916818 35.7842199,5.36164814 36.074475,5.35804444 C36.4504563,5.40422226 36.816349,5.21253398 37.0007048,4.8728 L37.7418548,4.87282667 Z M35.0366625,3.58289778 L37.0040625,3.58289778 C37.0237098,3.31139297 36.9308526,3.04398567 36.7483617,2.84653802 C36.5658708,2.64909037 36.3107075,2.53995393 36.0457183,2.54600889 C35.7769255,2.54225191 35.5180767,2.65030325 35.3280355,2.84559146 C35.1379943,3.04087967 35.0329133,3.30680614 35.0366885,3.58289778 L35.0366625,3.58289778 Z" id="Shape"></path>
                            <path d="M41.0022606,1.95095111 L42.759225,1.95095111 C43.5215077,1.95095111 43.9685654,2.34765333 43.9685654,2.96872889 C43.9710079,3.37487173 43.6965071,3.72740799 43.3102327,3.81421333 L43.3102327,3.87671111 C43.7828569,3.90738268 44.1492004,4.31306413 44.1435029,4.79945778 C44.1435029,5.49780444 43.6322163,5.95353778 42.776974,5.95353778 L41.0022606,5.95353778 L41.0022606,1.95095111 Z M41.7645433,2.55728 L41.7645433,3.59373333 L42.526826,3.59373333 C42.9916327,3.59373333 43.2138981,3.41014222 43.2138981,3.0716 C43.2138981,2.75953778 43.0203721,2.55728 42.6121875,2.55728 L41.7645433,2.55728 Z M41.7645433,4.17448 L41.7645433,5.34722667 L42.6764423,5.34722667 C43.1311067,5.34722667 43.3744962,5.14106667 43.3744962,4.76259556 C43.3744962,4.36199111 43.0989923,4.17448889 42.5800731,4.17448889 L41.7645433,4.17448 Z" id="Shape"></path>
                        </g>
                    </g>
                </g>
            </g>
        </g>
    </g>
</svg>