<svg width="30" height="30" viewBox="0 0 30 30" fill="white" xmlns="http://www.w3.org/2000/svg">
<path fill-rule="evenodd" clip-rule="evenodd" d="M26.9326 26.9325C26.2003 27.6647 25.0132 27.6647 24.2809 26.9325L15.0002 17.6517L5.71938 26.9325C4.98715 27.6647 3.79996 27.6647 3.06773 26.9325C2.3355 26.2003 2.3355 25.0131 3.06773 24.2808L12.3485 15L3.06773 5.71926C2.3355 4.98702 2.3355 3.79984 3.06773 3.06761C3.79996 2.33537 4.98715 2.33537 5.71938 3.06761L15.0002 12.3484L24.2809 3.06763C25.0132 2.3354 26.2003 2.3354 26.9326 3.06763C27.6648 3.79986 27.6648 4.98705 26.9326 5.71928L17.6518 15L26.9326 24.2808C27.6648 25.013 27.6648 26.2002 26.9326 26.9325Z"/>
</svg>
