<?xml version="1.0" encoding="UTF-8"?>
<svg width="14px" height="14px" viewBox="0 0 14 14" version="1.1" xmlns="http://www.w3.org/2000/svg" xmlns:xlink="http://www.w3.org/1999/xlink">
    <!-- Generator: Sketch 52.2 (67145) - http://www.bohemiancoding.com/sketch -->
    <title>Group</title>
    <desc>Created with Sketch.</desc>
    <g id="Реферальная-программа" stroke="none" stroke-width="1" fill="none" fill-rule="evenodd">
        <g id="Шаг3-Copy" transform="translate(-1062.000000, -198.000000)" fill="#EF1D25">
            <g id="Group" transform="translate(1062.000000, 198.000000)">
                <path d="M7,14 C3.13400675,14 0,10.8659932 0,7 C0,3.13400675 3.13400675,0 7,0 C10.8659932,0 14,3.13400675 14,7 C14,10.8659932 10.8659932,14 7,14 Z M7,13.3333333 C10.4978034,13.3333333 13.3333333,10.4978034 13.3333333,7 C13.3333333,3.50219658 10.4978034,0.666666667 7,0.666666667 C3.50219658,0.666666667 0.666666667,3.50219658 0.666666667,7 C0.666666667,10.4978034 3.50219658,13.3333333 7,13.3333333 Z" id="Oval-4" fill-rule="nonzero"></path>
                <path d="M7.68944099,8.31175648 C7.59445285,8.53816843 6.42729765,8.51478027 6.29813665,8.31175648 C6.16897564,8.10873269 5.99398595,4.00739513 6.05819607,3.78404019 C6.1224062,3.56068524 6.39753827,3.33333333 6.98757764,3.33333333 C7.57761701,3.33333333 7.85655336,3.5558968 7.94188202,3.78404019 C8.02721069,4.01218357 7.78442914,8.08534453 7.68944099,8.31175648 Z M6.99378882,10.6666667 C6.44720497,10.6666667 6,10.2828267 6,9.83674237 C6,9.38028401 6.44720497,8.99644402 6.99378882,8.99644402 C7.54037267,8.99644402 8,9.38028401 8,9.83674237 C8,10.2828267 7.54037267,10.6666667 6.99378882,10.6666667 Z" id="!"></path>
            </g>
        </g>
    </g>
</svg>